<svg width="32" height="32" viewBox="0 0 32 32" fill="none" xmlns="http://www.w3.org/2000/svg">
<circle cx="16" cy="16" r="16" fill="white"/>
<path d="M20.6665 15.3332H16.6665V11.3332C16.6665 11.1564 16.5963 10.9868 16.4712 10.8618C16.3462 10.7367 16.1766 10.6665 15.9998 10.6665C15.823 10.6665 15.6535 10.7367 15.5284 10.8618C15.4034 10.9868 15.3332 11.1564 15.3332 11.3332V15.3332H11.3332C11.1564 15.3332 10.9868 15.4034 10.8618 15.5284C10.7367 15.6535 10.6665 15.823 10.6665 15.9998C10.6665 16.1766 10.7367 16.3462 10.8618 16.4712C10.9868 16.5963 11.1564 16.6665 11.3332 16.6665H15.3332V20.6665C15.3332 20.8433 15.4034 21.0129 15.5284 21.1379C15.6535 21.2629 15.823 21.3332 15.9998 21.3332C16.1766 21.3332 16.3462 21.2629 16.4712 21.1379C16.5963 21.0129 16.6665 20.8433 16.6665 20.6665V16.6665H20.6665C20.8433 16.6665 21.0129 16.5963 21.1379 16.4712C21.2629 16.3462 21.3332 16.1766 21.3332 15.9998C21.3332 15.823 21.2629 15.6535 21.1379 15.5284C21.0129 15.4034 20.8433 15.3332 20.6665 15.3332Z" fill="black"/>
</svg>
