<svg width="32" height="32" viewBox="0 0 32 32" fill="none" xmlns="http://www.w3.org/2000/svg">
<circle cx="16" cy="16" r="16" fill="white"/>
<path fill-rule="evenodd" clip-rule="evenodd" d="M18.6649 12.267V11.7337C18.6649 11.1446 18.1873 10.667 17.5982 10.667H14.3982C13.8091 10.667 13.3316 11.1446 13.3316 11.7337V12.267H11.7316C11.437 12.267 11.1982 12.5058 11.1982 12.8003C11.1982 13.0949 11.437 13.3337 11.7316 13.3337H12.2649V19.2003C12.2649 20.084 12.9813 20.8003 13.8649 20.8003H18.1316C19.0152 20.8003 19.7316 20.084 19.7316 19.2003V13.3337H20.2649C20.5595 13.3337 20.7982 13.0949 20.7982 12.8003C20.7982 12.5058 20.5595 12.267 20.2649 12.267H18.6649ZM17.5982 11.7337H14.3982V12.267H17.5982V11.7337ZM18.6649 13.3337H13.3316V19.2003C13.3316 19.4949 13.5704 19.7337 13.8649 19.7337H18.1316C18.4261 19.7337 18.6649 19.4949 18.6649 19.2003V13.3337Z" fill="#FF5555"/>
<path d="M14.3982 14.4003H15.4649V18.667H14.3982V14.4003Z" fill="#FF5555"/>
<path d="M16.5316 14.4003H17.5982V18.667H16.5316V14.4003Z" fill="#FF5555"/>
</svg>
